# xmcd CD database file
#
# Track frame offsets:
#	150
#	24377
#	59115
#	79559
#	117454
#	125759
#	140889
#	150371
#	184146
#	200404
#	219514
#
# Disc length: 3192 seconds
#
# Revision: 0
# Processed by: cddbd v1.5.2PL0 Copyright (c) Steve Scherf et al.
# Submitted via: CDex 1.51
#
DISCID=a20c760b
DTITLE=KILLING FLOOR - PRIMATES and MUSIC
DYEAR=2009
DGENRE=Jazz
TTITLE0=Gorilla
TTITLE1=Hurricane Sally
TTITLE2=Iron
TTITLE3=Dub Beginners
TTITLE4=Nonporhythm
TTITLE5=Roots Box
TTITLE6=See Saw
TTITLE7=Nuba
TTITLE8=Radical X
TTITLE9=Cut Back
TTITLE10=MOVE ON<BOUNUS TRACK>
EXTD=YEAR: 2009
EXTT0=
EXTT1=
EXTT2=
EXTT3=
EXTT4=
EXTT5=
EXTT6=
EXTT7=
EXTT8=
EXTT9=
EXTT10=
PLAYORDER=
